<?xml version="1.0" encoding="UTF-8" standalone="no"?>
<svg width="60px" height="60px" viewBox="0 0 60 60" version="1.1" xmlns="http://www.w3.org/2000/svg" xmlns:xlink="http://www.w3.org/1999/xlink" xmlns:sketch="http://www.bohemiancoding.com/sketch/ns">
    <!-- Generator: Sketch 3.2.2 (9983) - http://www.bohemiancoding.com/sketch -->
    <title>Blitzcam</title>
    <desc>Created with Sketch.</desc>
    <defs></defs>
    <g id="filled" stroke="none" stroke-width="1" fill="none" fill-rule="evenodd" sketch:type="MSPage">
        <g id="Photo_sliced" sketch:type="MSLayerGroup"></g>
        <g id="Photo" sketch:type="MSLayerGroup" transform="translate(6.000000, 3.000000)" stroke-width="2" stroke="#535353" stroke-linejoin="round">
            <g id="Blitzcam" sketch:type="MSShapeGroup">
                <rect id="Rectangle-2528" stroke-linecap="round" fill="#D8D8D8" x="10" y="0" width="28" height="21"></rect>
                <path d="M0,27 L48,27 L48,55 L0,55 L0,27 Z M23.5,50 C28.1944204,50 32,46.1944204 32,41.5 C32,36.8055796 28.1944204,33 23.5,33 C18.8055796,33 15,36.8055796 15,41.5 C15,46.1944204 18.8055796,50 23.5,50 Z" id="Rectangle-2529" stroke-linecap="round" fill="#D8D8D8"></path>
                <path d="M24,21 L24,27" id="Line" stroke-linecap="square"></path>
                <path d="M23.5,36 C20.4624339,36 18,38.4624339 18,41.5" id="Oval-1857" stroke-linecap="round"></path>
                <path d="M4,32 L12,32" id="Line" stroke-linecap="square"></path>
            </g>
        </g>
    </g>
</svg>