<?xml version="1.0" encoding="UTF-8" standalone="no"?>
<svg width="60px" height="60px" viewBox="0 0 60 60" version="1.1" xmlns="http://www.w3.org/2000/svg" xmlns:xlink="http://www.w3.org/1999/xlink" xmlns:sketch="http://www.bohemiancoding.com/sketch/ns">
    <!-- Generator: Sketch 3.2.2 (9983) - http://www.bohemiancoding.com/sketch -->
    <title>Cimbal</title>
    <desc>Created with Sketch.</desc>
    <defs></defs>
    <g id="filled" stroke="none" stroke-width="1" fill="none" fill-rule="evenodd" sketch:type="MSPage">
        <g id="Activities_sliced" sketch:type="MSLayerGroup" transform="translate(-600.000000, 0.000000)"></g>
        <g id="Activities" sketch:type="MSLayerGroup" transform="translate(-596.000000, 3.000000)" stroke="#535353" stroke-width="2" stroke-linecap="round" stroke-linejoin="round">
            <g id="Cimbal" transform="translate(598.000000, 1.000000)" sketch:type="MSShapeGroup">
                <rect id="Rectangle-1095" fill="#D8D8D8" x="0" y="40" width="44" height="14"></rect>
                <rect id="Rectangle-1095" fill="#D8D8D8" x="2" y="28" width="40" height="14"></rect>
                <rect id="Rectangle-1095" fill="#D8D8D8" x="4" y="16" width="36" height="14"></rect>
                <rect id="Rectangle-1096" fill="#D8D8D8" x="6" y="4" width="32" height="14"></rect>
                <circle id="Oval-889" cx="37" cy="47" r="2"></circle>
                <circle id="Oval-890" cx="7" cy="47" r="2"></circle>
                <circle id="Oval-891" cx="9" cy="35" r="2"></circle>
                <circle id="Oval-892" cx="35" cy="35" r="2"></circle>
                <circle id="Oval-894" cx="11" cy="23" r="2"></circle>
                <circle id="Oval-893" cx="33" cy="23" r="2"></circle>
                <circle id="Oval-896" cx="13" cy="11" r="2"></circle>
                <circle id="Oval-895" cx="31" cy="11" r="2"></circle>
                <path d="M46.0000001,0.999999982 L46.0000001,18.9999996" id="Path-2125"></path>
                <path d="M52.0000001,11 L52.0000001,28.9999996" id="Path-2125"></path>
                <circle id="Oval-897" cx="46" cy="23" r="3"></circle>
                <circle id="Oval-897" cx="52" cy="33" r="3"></circle>
            </g>
        </g>
    </g>
</svg>