<?xml version="1.0" encoding="UTF-8" standalone="no"?>
<svg width="60px" height="60px" viewBox="0 0 60 60" version="1.1" xmlns="http://www.w3.org/2000/svg" xmlns:xlink="http://www.w3.org/1999/xlink" xmlns:sketch="http://www.bohemiancoding.com/sketch/ns">
    <!-- Generator: Sketch 3.2.2 (9983) - http://www.bohemiancoding.com/sketch -->
    <title>Moviescene</title>
    <desc>Created with Sketch.</desc>
    <defs></defs>
    <g id="filled" stroke="none" stroke-width="1" fill="none" fill-rule="evenodd" sketch:type="MSPage">
        <g id="Photo_sliced" sketch:type="MSLayerGroup" transform="translate(-720.000000, 0.000000)"></g>
        <g id="Photo" sketch:type="MSLayerGroup" transform="translate(-714.000000, 3.000000)" stroke="#535353" stroke-width="2" stroke-linejoin="round">
            <g id="Moviescene" transform="translate(718.000000, 5.000000)" sketch:type="MSShapeGroup">
                <rect id="Rectangle-2541" stroke-linecap="round" fill="#D8D8D8" x="1" y="17" width="50" height="31"></rect>
                <rect id="Rectangle-2541" stroke-linecap="round" fill="#D8D8D8" x="1" y="17" width="50" height="8"></rect>
                <path d="M5,17 L7.5,25" id="Path-5681" stroke-linecap="round" fill="#D8D8D8"></path>
                <path d="M15,17 L17.5,25" id="Path-5682" stroke-linecap="round" fill="#D8D8D8"></path>
                <path d="M25,17 L27.5,25" id="Path-5683" stroke-linecap="round" fill="#D8D8D8"></path>
                <path d="M35,17 L37.5,25" id="Path-5684" stroke-linecap="round" fill="#D8D8D8"></path>
                <g id="Group" transform="translate(26.000000, 12.000000) rotate(-5.000000) translate(-26.000000, -12.000000) translate(1.000000, 3.000000)" stroke-linecap="round">
                    <rect id="Rectangle-2542" x="0" y="0" width="50" height="8"></rect>
                    <path d="M4,0 L6.5,8" id="Path-5686"></path>
                    <path d="M14,0 L16.5,8" id="Path-5687"></path>
                    <path d="M24,0 L26.5,8" id="Path-5688"></path>
                    <path d="M34,0 L36.5,8" id="Path-5689"></path>
                    <path d="M44,0 L46.5,8" id="Path-5690"></path>
                </g>
                <path d="M45,17 L47.5,25" id="Path-5685" stroke-linecap="round" fill="#D8D8D8"></path>
                <path d="M5,29 L24,29" id="Line" stroke-linecap="square"></path>
                <path d="M5,32 L24,32" id="Line" stroke-linecap="square"></path>
                <path d="M5,40 L47,40" id="Line" stroke-linecap="square"></path>
                <path d="M11,40 L11,44" id="Line" stroke-linecap="square"></path>
                <path d="M21,40 L21,44" id="Line-417" stroke-linecap="square"></path>
                <path d="M31,40 L31,44" id="Line-418" stroke-linecap="square"></path>
                <path d="M41,40 L41,44" id="Line-419" stroke-linecap="square"></path>
            </g>
        </g>
    </g>
</svg>