<?xml version="1.0" encoding="utf-8"?>
<!-- Generator: Adobe Illustrator 19.1.0, SVG Export Plug-In . SVG Version: 6.00 Build 0)  -->
<!DOCTYPE svg PUBLIC "-//W3C//DTD SVG 1.1//EN" "http://www.w3.org/Graphics/SVG/1.1/DTD/svg11.dtd">
<svg version="1.1" xmlns="http://www.w3.org/2000/svg" xmlns:xlink="http://www.w3.org/1999/xlink" x="0px" y="0px"
	 width="881.03082px" height="550.30859px" viewBox="0 0 881.03082 550.30859" enable-background="new 0 0 881.03082 550.30859"
	 xml:space="preserve">
<g id="Letter">
	<g>
		<circle fill="#F9D015" cx="94.03005" cy="114.1416" r="44.99975"/>
	</g>
	<g id="XMLID_6_">
		<g>
			<polygon fill="#59D999" points="108.0103,80.3716 108.0103,86.0918 102.2901,86.0918 105.1201,83.2617 			"/>
			<path fill="#293A56" d="M160.0303,110.1719v36.9697c0,1.6602-1.3398,3-3,3H83.0303c-1.27979,0-2.4199-0.8101-2.8398-2.0303
				c-0.1104-0.30949-0.1602-0.6299-0.1602-0.94969c0-0.01021,0-0.01021,0-0.02v-36.9697c0-0.91019,0.4102-1.7705,1.1201-2.3404
				l10.9097-8.7202V89.0815c0-0.79,0.31001-1.5503,0.8701-2.1196l15.96-15.9404c0.56001-0.5596,1.33-0.8799,2.1201-0.8799h33.9902
				c1.6597,0,3,1.3398,3,3v26.3101l10.85989,8.3398C159.6001,108.3613,160.0303,109.2417,160.0303,110.1719z M154.0303,141.67191
				v-26.3604l-19.3701,10.9697L154.0303,141.67191z M148.0005,111.8315l3.6196-2.04l-3.6196-2.77979V111.8315z M91.7901,144.1514
				h55.7202l-27.5-21.84959L91.7901,144.1514z M142.0005,115.2314V76.1318h-27.9902v12.9497c0,1.6602-1.3399,3-3,3H98.0601v23.4205
				l11.9204,6.9794l8.21-6.3598c1.0898-0.8501,2.6196-0.8404,3.7099,0.02l7.6997,6.1201L142.0005,115.2314z M108.0103,86.0918
				v-5.7202l-2.8902,2.89011l-2.83,2.83009H108.0103z M86.0303,141.0312l18.83981-14.58981l-18.83981-11.04V141.0312z
				 M92.0601,111.9814v-5.1899l-3.75,3L92.0601,111.9814z"/>
		</g>
		<g>
		</g>
	</g>
</g>
<g id="Newspaper">
	<g>
		<circle fill="#59D999" cx="260.0303" cy="130.14259" r="45"/>
	</g>
	<g>
		<g id="XMLID_1_">
			<g>
				<rect x="276.5303" y="100.1416" fill="#F9D015" width="27" height="10"/>
				<path fill="#293A56" d="M320.0303,85.1416v62c0,1.6602-1.33981,3-3,3h-74c-1.6602,0-3-1.3398-3-3v-58
					c0-0.7598,0.28999-1.5,0.81009-2.0498l15-16c0.56979-0.6104,1.3598-0.9502,2.18991-0.9502h52c1.66019,0,3,1.3398,3,3v9h4
					C318.69049,82.1416,320.0303,83.4814,320.0303,85.1416z M314.0303,144.1416v-56H264.7002v15.6699c0,1.6504-1.3501,3-3,3
					H246.0303v37.3301H314.0303z M307.0303,82.1416v-6h-47.7002l-13.2998,14.1899v6.23l13.5498-13.54
					c0.56009-0.5596,1.32028-0.8799,2.12009-0.8799H307.0303z M258.7002,100.8115v-8.4297l-8.4297,8.4297H258.7002z"/>
				<path fill="#293A56" d="M309.5303,97.1416v16c0,1.6602-1.33981,3-3,3h-33c-1.66022,0-3-1.3398-3-3v-16c0-1.6602,1.33978-3,3-3
					h33C308.19049,94.1416,309.5303,95.4814,309.5303,97.1416z M303.5303,110.1416v-10h-27v10H303.5303z"/>
				<path fill="#293A56" d="M306.5303,122.1416c1.66019,0,3,1.3398,3,3s-1.33981,3-3,3h-53c-1.6602,0-3-1.3398-3-3s1.3398-3,3-3
					H306.5303z"/>
				<path fill="#293A56" d="M306.5303,133.1416c1.66019,0,3,1.3398,3,3s-1.33981,3-3,3h-53c-1.6602,0-3-1.3398-3-3s1.3398-3,3-3
					H306.5303z"/>
			</g>
			<g>
			</g>
		</g>
	</g>
</g>
<g id="Chat">
	<g>
		<circle fill="#F84D43" cx="421.03055" cy="85.1426" r="44.99975"/>
	</g>
	<g>
		<path fill="#293A56" d="M474.0303,80.1416h-23.0386l-13.21771-9.4414c-0.91409-0.6528-2.1167-0.7402-3.11627-0.2261
			c-0.99951,0.5147-1.62741,1.5435-1.62741,2.6675v7h-8c-1.65671,0-3,1.3433-3,3v9.2695h-18c-1.65671,0-3,1.3433-3,3V135.646
			c0,1.65671,1.34329,3,3,3h26.62839l15.31201,10.9375c0.51859,0.3696,1.12939,0.55811,1.7442,0.55811
			c0.46869,0,0.93939-0.10991,1.37201-0.332c0.99957-0.51469,1.62747-1.54449,1.62747-2.668V138.646h12.31592
			c1.65671,0,3-1.34329,3-3V121.1416h8c1.65671,0,3-1.3433,3-3v-35C477.0303,81.4849,475.68701,80.1416,474.0303,80.1416z
			 M460.0303,132.646h-12.31592c-1.6568,0-3,1.34331-3,3v5.666l-11.35059-8.1064c-0.50879-0.3643-1.11819-0.5596-1.74371-0.5596
			H407.0303V98.4111h53V132.646z M471.0303,115.1416h-5V95.4111c0-1.6567-1.34329-3-3-3h-35v-6.2695h8c1.65671,0,3-1.3433,3-3
			v-4.1704l9.25629,6.6123c0.50882,0.3633,1.11819,0.5581,1.74371,0.5581h21V115.1416z"/>
		<path fill="#293A56" d="M419.0303,117.9517c0.79001,0,1.56009-0.3194,2.1196-0.8804c0.56009-0.55959,0.8804-1.33009,0.8804-2.1196
			c0-0.7901-0.32031-1.5601-0.8804-2.1202c-1.1196-1.12009-3.12991-1.12009-4.23972,0
			c-0.56009,0.5601-0.87988,1.3301-0.87988,2.1202c0,0.78951,0.31979,1.56001,0.87988,2.1196
			C417.47021,117.6323,418.2403,117.9517,419.0303,117.9517z"/>
		<path fill="#293A56" d="M433.97021,117.9517c0.7901,0,1.56989-0.3194,2.12018-0.8804
			c0.55951-0.55959,0.87982-1.33009,0.87982-2.1196c0-0.7901-0.32031-1.5601-0.87982-2.1202
			c-1.11038-1.12009-3.12018-1.12009-4.2403,0c-0.5498,0.5601-0.87988,1.3301-0.87988,2.1202
			c0,0.78951,0.31989,1.56001,0.87988,2.1196C432.41019,117.6323,433.19,117.9517,433.97021,117.9517z"/>
		<path fill="#293A56" d="M448.91989,117.9517c0.7901,0,1.56012-0.3194,2.12021-0.8804c0.56-0.55959,0.87979-1.33009,0.87979-2.1196
			c0-0.7901-0.31979-1.5601-0.87979-2.1202c-1.12021-1.12009-3.12991-1.10979-4.23981,0c-0.56,0.5601-0.8804,1.3301-0.8804,2.1202
			c0,0.78951,0.3204,1.5703,0.8804,2.1196C447.36041,117.6323,448.1304,117.9517,448.91989,117.9517z"/>
	</g>
</g>
<g id="TV">
	<circle fill="#B6C6AD" cx="577.03027" cy="98.1406" r="45"/>
	<g>
		<g id="XMLID_8_">
			<g>
				<path fill="#F84D43" d="M631.03027,107.5518c0-0.7901-0.31976-1.5601-0.87988-2.1202c-1.12012-1.1201-3.12988-1.1201-4.24017,0
					c-0.56012,0.5498-0.87994,1.3301-0.87994,2.1202c0,0.78999,0.31982,1.55949,0.87994,2.12009
					c0.56,0.5595,1.33008,0.87991,2.12006,0.87991c0.79004,0,1.56012-0.3204,2.12012-0.87991
					C630.71051,109.1113,631.03027,108.3418,631.03027,107.5518z M625.03027,96.5518c0,0.78999,0.31982,1.55949,0.87994,2.12009
					c0.56,0.5595,1.33008,0.87991,2.12006,0.87991c0.79004,0,1.56012-0.3204,2.12012-0.87991
					c0.56012-0.5606,0.87988-1.3301,0.87988-2.12009c0-0.7901-0.31976-1.5601-0.87988-2.1202
					c-1.12012-1.1201-3.12988-1.1201-4.24017,0C625.3501,94.9917,625.03027,95.7617,625.03027,96.5518z M634.03027,89.5518v26h-12
					v-26H634.03027z"/>
				<path fill="#293A56" d="M640.03027,86.5518v55c0,1.6601-1.33978,3-3,3h-3v3c0,1.6601-1.33978,3-3,3c-1.66016,0-3-1.3399-3-3v-3
					h-56v3c0,1.6601-1.33978,3-3,3c-1.66016,0-3-1.3399-3-3v-3h-3c-1.66016,0-3-1.3399-3-3v-55c0-1.6602,1.33984-3,3-3h21.81012
					l-7.9903-8.4102c-1.13959-1.2002-1.08978-3.10011,0.11041-4.2402c1.2099-1.13969,3.1098-1.0899,4.25,0.11031l9.96967,10.5098
					l10.75-10.5195c1.18994-1.1602,3.08014-1.1407,4.24023,0.0395c1.15967,1.1899,1.13971,3.0801-0.04004,4.2397l-8.4502,8.27061
					h39.3501C638.69049,83.5518,640.03027,84.8916,640.03027,86.5518z M634.03027,138.5518v-17h-12v17H634.03027z
					 M634.03027,115.5518v-26h-12v26H634.03027z M616.03027,138.5518v-49h-50v49H616.03027z"/>
				<path fill="#293A56" d="M630.15039,94.4316c0.56012,0.5601,0.87988,1.3301,0.87988,2.1202
					c0,0.78999-0.31976,1.55949-0.87988,2.12009c-0.56,0.5595-1.33008,0.87991-2.12012,0.87991
					c-0.78998,0-1.56006-0.3204-2.12006-0.87991c-0.56012-0.5606-0.87994-1.3301-0.87994-2.12009
					c0-0.7901,0.31982-1.5601,0.87994-2.1202C627.02051,93.3115,629.03027,93.3115,630.15039,94.4316z"/>
				<path fill="#293A56" d="M630.15039,105.4316c0.56012,0.5601,0.87988,1.3301,0.87988,2.1202
					c0,0.78999-0.31976,1.55949-0.87988,2.12009c-0.56,0.5595-1.33008,0.87991-2.12012,0.87991
					c-0.78998,0-1.56006-0.3204-2.12006-0.87991c-0.56012-0.5606-0.87994-1.3301-0.87994-2.12009
					c0-0.7901,0.31982-1.5704,0.87994-2.1202C627.02051,104.3115,629.03027,104.3115,630.15039,105.4316z"/>
				<path fill="#293A56" d="M613.03027,102.5518v23c0,5.50969-4.49017,10-10,10h-24c-5.50977,0-10-4.49031-10-10v-23
					c0-5.51031,4.49023-10,10-10h24C608.5401,92.5518,613.03027,97.0415,613.03027,102.5518z M607.03027,125.5518v-23
					c0-2.21001-1.78998-4-4-4h-24c-2.20996,0-4,1.78999-4,4v23c0,2.2002,1.79004,4,4,4h24
					C605.2403,129.5518,607.03027,127.752,607.03027,125.5518z"/>
			</g>
			<g>
			</g>
		</g>
	</g>
</g>
<g id="Mic">
	<circle fill="#59D999" cx="775.03027" cy="131.14059" r="45"/>
	<g>
		<path fill="#293A56" d="M786.93018,113.1416c0-1.6567-1.34326-3-3-3c-1.65668,0-3,1.3433-3,3
			c0,10.918-8.88226,19.8008-19.7998,19.8008c-10.91748,0-19.79974-8.8828-19.79974-19.8008c0-1.6567-1.34332-3-3-3
			c-1.65674,0-3,1.3433-3,3c0,13.2114,9.98285,24.12889,22.79974,25.62109v5.37891h-10.5c-1.65668,0-3,1.34329-3,3
			c0,1.65669,1.34332,3,3,3h27c1.65674,0,3-1.34331,3-3c0-1.65671-1.34326-3-3-3h-10.5v-5.37891
			C776.94733,137.27049,786.93018,126.353,786.93018,113.1416z"/>
		<path fill="#293A56" d="M761.13037,129.1416c9.37402,0,17-7.6265,17-17v-25c0-9.374-7.62598-17-17-17c-9.37396,0-17,7.626-17,17
			v25C744.13037,121.5151,751.75641,129.1416,761.13037,129.1416z M750.13037,87.1416c0-6.0654,4.93463-11,11-11
			c6.06543,0,11,4.9346,11,11v25c0,6.0659-4.93457,11-11,11c-6.06537,0-11-4.9341-11-11V87.1416z"/>
		<path fill="#293A56" d="M761.13037,93.1416c0.78955,0,1.55963-0.3203,2.11963-0.8799
			c0.56012-0.56001,0.88037-1.3301,0.88037-2.1201s-0.32025-1.5601-0.88037-2.1196c-1.11963-1.1201-3.11963-1.1201-4.23969,0
			c-0.56012,0.55949-0.87994,1.3296-0.87994,2.1196s0.31982,1.5601,0.87994,2.1201
			C759.57031,92.8213,760.34039,93.1416,761.13037,93.1416z"/>
		<path fill="#293A56" d="M761.13037,103.6416c0.78955,0,1.55963-0.3203,2.11963-0.8799
			c0.56012-0.56001,0.88037-1.3301,0.88037-2.1201s-0.32025-1.5601-0.88037-2.1196c-1.11963-1.1201-3.11963-1.1201-4.23969,0
			c-0.56012,0.55949-0.87994,1.3296-0.87994,2.1196s0.31982,1.5601,0.87994,2.1201
			C759.57031,103.3213,760.34039,103.6416,761.13037,103.6416z"/>
		<path fill="#293A56" d="M761.13037,114.1416c0.78955,0,1.55963-0.3203,2.11963-0.8799
			c0.56012-0.56001,0.88037-1.3301,0.88037-2.1201s-0.32025-1.5601-0.88037-2.1196c-1.1098-1.1201-3.12988-1.1201-4.23969,0
			c-0.56012,0.55949-0.87994,1.3296-0.87994,2.1196s0.31982,1.5601,0.87994,2.1201
			C759.57031,113.8213,760.34039,114.1416,761.13037,114.1416z"/>
	</g>
</g>
<g id="Phone">
	<circle fill="#F84D43" cx="100.0303" cy="250.14259" r="45"/>
	<g>
		<path fill="#293A56" d="M117.8003,292.022c-0.56,0.55951-0.8804,1.32959-0.8804,2.1196s0.3204,1.56009,0.8804,2.12009
			c0.5601,0.5596,1.3301,0.87991,2.1196,0.87991c0.7901,0,1.5704-0.32031,2.1202-0.87991c0.56-0.56,0.8798-1.33008,0.8798-2.12009
			s-0.3198-1.56009-0.8798-2.1196C120.9302,290.90189,118.9199,290.90189,117.8003,292.022z"/>
		<path fill="#293A56" d="M136.6436,235.1416h-33.4404c-1.6568,0-3,1.3428-3,3v64c0,1.6572,1.3432,3,3,3h33.4404
			c1.65669,0,3-1.3428,3-3v-64C139.6436,236.48441,138.30029,235.1416,136.6436,235.1416z M133.6436,299.1416h-27.4404v-58h27.4404
			V299.1416z"/>
		<path fill="#293A56" d="M125.7295,275.5928c0.0015,0,0.0034,0,0.0054,0c0.9131,0,1.7764-0.41602,2.34519-1.1304l1.3394-1.68069
			c0.61081-0.7666,0.80861-1.7822,0.53021-2.72211c-0.27881-0.94049-0.99901-1.68411-1.92871-1.99371l-3.4844-1.16058
			c-1.4194-0.47321-2.9453,0.17621-3.6118,1.46631c-0.8213-0.45071-1.583-1.02103-2.2627-1.70172
			c-0.9775-0.97949-1.7246-2.12738-2.2138-3.3779c0.1186-0.0415,0.2353-0.09079,0.35059-0.14841
			c1.48241-0.7403,2.0835-2.54199,1.3427-4.02448l-1.1611-2.32422c-0.4312-0.8633-1.252-1.46579-2.2046-1.62009
			c-0.95461-0.15431-1.9214,0.15919-2.603,0.8428l-1.5235,1.52728c-0.5595,0.5611-0.8745,1.32031-0.8759,2.1123
			c-0.0088,4.24811,1.6401,8.24469,4.6425,11.2515C117.4317,273.92969,121.4492,275.5928,125.7295,275.5928z"/>
		<path fill="#293A56" d="M86.0303,274.1221c0.0015-3.5596,1.39011-6.90729,3.9102-9.42679
			c1.1718-1.1709,1.1723-3.07031,0.0014-4.24222c-1.1714-1.17191-3.0713-1.1723-4.2427-0.00101
			c-3.6538,3.6514-5.6669,8.50592-5.66891,13.668c-0.002,5.16312,2.0088,10.0166,5.6611,13.66602
			c0.586,0.58551,1.3531,0.87799,2.1206,0.87799c0.7681,0,1.53671-0.293,2.1221-0.87988
			c1.1714-1.17191,1.1704-3.07132-0.0015-4.24222C87.4151,281.0264,86.0288,277.68121,86.0303,274.1221z"/>
		<path fill="#293A56" d="M154.1563,260.4292c-1.17239-1.17139-3.07129-1.17041-4.24269,0.00201
			c-1.1714,1.1713-1.17041,3.0708,0.0015,4.2421c2.5175,2.51569,3.90331,5.86139,3.90179,9.41998
			c-0.00139,3.56-1.39009,6.9072-3.9101,9.42621c-1.17191,1.1709-1.1729,3.07031-0.0015,4.24219
			c0.58589,0.586,1.35399,0.87943,2.1221,0.87943c0.7675,0,1.53459-0.293,2.12059-0.8779
			c3.65381-3.65091,5.66701-8.5054,5.6689-13.66751C159.81889,268.9321,157.80859,264.07809,154.1563,260.4292z"/>
		<path fill="#293A56" d="M97.9385,264.0889c-1.1714-1.17191-3.0703-1.17191-4.2427-0.00049
			c-2.6811,2.68018-4.1582,6.2431-4.1596,10.0307c-0.001,3.78909,1.4746,7.35159,4.1547,10.0293
			c0.586,0.58548,1.3531,0.87799,2.1206,0.87799c0.7681,0,1.5367-0.29251,2.1221-0.87988
			c1.1714-1.17242,1.17039-3.07132-0.0014-4.24222c-1.5459-1.54401-2.3965-3.59769-2.396-5.7832
			c0.0009-2.18561,0.854-4.24219,2.4018-5.78958C99.1099,267.16019,99.1099,265.26071,97.9385,264.0889z"/>
		<path fill="#293A56" d="M146.0381,264.06149c-1.17191-1.17139-3.07181-1.17139-4.24271,0.0025
			c-1.1714,1.1713-1.17039,3.0708,0.00151,4.2417c1.54539,1.5434,2.396,3.5976,2.39549,5.78271
			c-0.00099,2.186-0.854,4.24219-2.4014,5.78949c-1.1718,1.17191-1.1718,3.07129-0.0004,4.24219
			c0.58589,0.58643,1.3535,0.87943,2.12149,0.87943c0.76761,0,1.53571-0.293,2.12111-0.87842
			c2.68069-2.68069,4.1577-6.24271,4.15919-10.03079C150.19341,270.30081,148.71831,266.73929,146.0381,264.06149z"/>
	</g>
</g>
<g id="Antenna">
	<circle fill="#F9D015" cx="259.0303" cy="249.14259" r="45"/>
	<g>
		<g id="XMLID_2_">
			<g>
				<path fill="#59D999" d="M280.0303,239.6416c1.93021,0,3.5,1.5703,3.5,3.5s-1.56979,3.5-3.5,3.5s-3.5-1.5703-3.5-3.5
					S278.1001,239.6416,280.0303,239.6416z"/>
				<path fill="#293A56" d="M308.82031,230.91161c3.6499,3.6402,5.66019,8.5,5.66019,13.6597
					c0,5.1601-2.01028,10.02049-5.67041,13.67039c-0.57959,0.58981-1.34958,0.87991-2.1196,0.87991
					c-0.77008,0-1.5303-0.2901-2.12018-0.87991c-1.16992-1.17041-1.16992-3.06979,0-4.2397
					c2.52008-2.5206,3.91019-5.87019,3.91019-9.43069c0-3.5596-1.3804-6.9097-3.90039-9.41991
					c-1.16992-1.17-1.16992-3.0699,0-4.23979C305.75049,229.7314,307.65039,229.7314,308.82031,230.91161z"/>
				<path fill="#293A56" d="M304.41019,306.31149c0.4599,1.5899-0.45999,3.25-2.04977,3.71002
					c-0.2803,0.08008-0.56012,0.12009-0.83011,0.12009c-1.2998,0-2.5-0.8501-2.87991-2.16989l-3.4101-11.83011h-29.62021
					l-3.18988,11.79001c-0.37012,1.33008-1.58011,2.20999-2.8999,2.20999c-0.2598,0-0.51999-0.0303-0.79001-0.1001
					c-1.5899-0.43991-2.5401-2.08981-2.10989-3.68991l15.6597-57.71979c-1.09961-1.55031-1.7598-3.45021-1.7598-5.4902
					c0-5.2402,4.2598-9.5,9.5-9.5s9.5,4.2598,9.5,9.5c0,2.03999-0.6499,3.91989-1.7402,5.4697L304.41019,306.31149z
					 M293.51031,290.1416l-4.75-16.4902l-16.48981,16.4902H293.51031z M286.02051,264.1416l-3.42041-11.8604
					c-0.81979,0.2305-1.67969,0.3604-2.56979,0.3604c-0.87012,0-1.70999-0.1299-2.51999-0.3501l-3.21002,11.8501H286.02051z
					 M268.5401,285.3916l15.25-15.25h-11.11969L268.5401,285.3916z M283.5303,243.1416c0-1.9297-1.56979-3.5-3.5-3.5
					s-3.5,1.5703-3.5,3.5s1.56979,3.5,3.5,3.5S283.5303,245.0713,283.5303,243.1416z"/>
				<path fill="#293A56" d="M299.21051,235.13181c2.5097,2.5098,3.88959,5.83989,3.88959,9.3799
					c0,3.54979-1.38959,6.88969-3.90961,9.3999c-0.58008,0.58009-1.3501,0.8799-2.12018,0.8799
					c-0.76022,0-1.53021-0.2998-2.12012-0.8799c-1.16989-1.18021-1.16989-3.08011,0.01031-4.25
					c1.37988-1.3804,2.13959-3.19971,2.13959-5.1499c0-1.9404-0.7597-3.7597-2.12988-5.1299
					c-1.16992-1.16991-1.18011-3.07031,0-4.2402C296.1304,233.9619,298.0303,233.9619,299.21051,235.13181z"/>
				<path fill="#293A56" d="M264.96051,235.16161c1.16989,1.18019,1.15958,3.08009-0.01031,4.25
					c-1.37988,1.3696-2.14011,3.19969-2.14011,5.14989c0,1.94051,0.75,3.75981,2.1304,5.12991
					c1.16992,1.16989,1.16992,3.0703,0,4.24019c-0.58008,0.5899-1.3501,0.8799-2.12018,0.8799
					c-0.77002,0-1.54001-0.28999-2.12012-0.8799c-2.5097-2.5-3.89011-5.83-3.89011-9.3701
					c0-3.54979,1.39011-6.88959,3.90042-9.39989C261.8902,233.9917,263.7901,233.9917,264.96051,235.16161z"/>
				<path fill="#293A56" d="M255.4903,230.93159c1.16989,1.17,1.16989,3.0704,0,4.24031
					c-2.5201,2.5195-3.9102,5.8696-3.9102,9.42969c0,3.56001,1.3804,6.90041,3.90041,9.41991
					c1.16989,1.16991,1.16989,3.0703,0,4.24019c-0.58009,0.5899-1.3501,0.87991-2.1201,0.87991s-1.5401-0.29001-2.1201-0.87991
					c-3.6499-3.65039-5.6602-8.49998-5.6602-13.6601c0-5.17,2.0103-10.0201,5.67041-13.67
					C252.42039,229.7617,254.3203,229.7617,255.4903,230.93159z"/>
			</g>
			<g>
			</g>
		</g>
	</g>
</g>
<g id="Fax">
	<circle fill="#59D999" cx="425.0303" cy="279.14059" r="45"/>
	<g>
		<g id="XMLID_7_">
			<g>
				<polygon fill="#F9D015" points="442.72021,240.38181 442.72021,244.8315 438.27051,244.8315 				"/>
				<path fill="#293A56" d="M480.0303,261.1416v32.83011c0,1.6601-1.33981,3-3,3h-2v10.16989c0,1.66019-1.33981,3-3,3h-41
					c-1.66022,0-3-1.33981-3-3v-10.16989h-3v6.3598c0,1.66019-1.33981,3-3,3h-18c-1.66022,0-3-1.33981-3-3V254.9917
					c0-1.6499,1.33978-3,3-3h18c1.66019,0,3,1.3501,3,3v3.1499h3v-10.3101c0-0.80029,0.31979-1.56,0.87988-2.1196l14.68991-14.6904
					c0.56009-0.5596,1.32031-0.8799,2.12012-0.8799h26.31009c1.66019,0,3,1.3398,3,3v25h2c0.7998,0,1.56009,0.32031,2.12009,0.87991
					C479.71051,259.58151,480.0303,260.3418,480.0303,261.1416z M474.0303,290.97171V264.1416h-15h-9h-25v26.83011h25h9H474.0303z
					 M469.0303,304.1416v-7.16989h-35v7.16989H469.0303z M469.0303,258.1416v-22h-20.31009v11.6899c0,1.6602-1.33981,3-3,3H434.0303
					v7.3101H469.0303z M442.72021,244.8315v-4.44969l-4.44971,4.44969H442.72021z M419.0303,300.33151V257.9917h-12v42.33981
					H419.0303z"/>
				<path fill="#293A56" d="M470.15039,267.44141c0.56012,0.55029,0.87991,1.33011,0.87991,2.12009
					c0,0.7901-0.31979,1.56012-0.87991,2.12012c-0.56,0.56009-1.33008,0.87988-2.12009,0.87988s-1.56009-0.31979-2.12012-0.87988
					c-0.56009-0.56-0.87988-1.33002-0.87988-2.12012c0-0.78998,0.31979-1.56979,0.87988-2.12009
					C467.02051,266.32129,469.0303,266.32129,470.15039,267.44141z"/>
				<path fill="#293A56" d="M470.15039,275.44141c0.56012,0.55029,0.87991,1.33011,0.87991,2.12009
					c0,0.7901-0.31979,1.56012-0.87991,2.12012c-0.56,0.56009-1.33008,0.87988-2.12009,0.87988s-1.56009-0.31979-2.12012-0.87988
					c-0.56009-0.56-0.87988-1.33002-0.87988-2.12012c0-0.78998,0.31979-1.56979,0.87988-2.12009
					C467.02051,274.32129,469.0303,274.32129,470.15039,275.44141z"/>
				<path fill="#293A56" d="M470.15039,283.44141c0.56012,0.55029,0.87991,1.33011,0.87991,2.12009
					c0,0.7901-0.31979,1.56012-0.87991,2.12012c-0.56,0.56009-1.33008,0.87988-2.12009,0.87988s-1.56009-0.31979-2.12012-0.87988
					c-0.56009-0.56-0.87988-1.33002-0.87988-2.12012c0-0.78998,0.31979-1.56979,0.87988-2.12009
					C467.02051,282.32129,469.0303,282.32129,470.15039,283.44141z"/>
				<path fill="#293A56" d="M461.15039,267.44141c0.56012,0.55029,0.87991,1.33011,0.87991,2.12009
					c0,0.7901-0.31979,1.56012-0.87991,2.12012c-0.56,0.56009-1.33008,0.87988-2.12009,0.87988s-1.56009-0.31979-2.12012-0.87988
					c-0.56009-0.56-0.87988-1.33002-0.87988-2.12012c0-0.78998,0.31979-1.56979,0.87988-2.12009
					c0.56003-0.5596,1.3403-0.83981,2.12012-0.83981C459.81009,266.60159,460.59039,266.88181,461.15039,267.44141z"/>
				<path fill="#293A56" d="M461.15039,275.44141c0.56012,0.55029,0.87991,1.33011,0.87991,2.12009
					c0,0.7901-0.31979,1.56012-0.87991,2.12012c-0.56,0.56009-1.33008,0.87988-2.12009,0.87988s-1.56009-0.31979-2.12012-0.87988
					c-0.56009-0.56-0.87988-1.33002-0.87988-2.12012c0-0.78998,0.31979-1.56979,0.87988-2.12009
					c0.56003-0.5596,1.3403-0.83981,2.12012-0.83981C459.81009,274.60159,460.59039,274.88181,461.15039,275.44141z"/>
				<path fill="#293A56" d="M461.15039,283.44141c0.56012,0.55029,0.87991,1.33011,0.87991,2.12009
					c0,0.7901-0.31979,1.56012-0.87991,2.12012c-0.56,0.56009-1.33008,0.87988-2.12009,0.87988s-1.56009-0.31979-2.12012-0.87988
					c-0.56009-0.56-0.87988-1.33002-0.87988-2.12012c0-0.78998,0.31979-1.56979,0.87988-2.12009
					c0.56003-0.5596,1.3403-0.83981,2.12012-0.83981C459.81009,282.60159,460.59039,282.88181,461.15039,283.44141z"/>
				<path fill="#293A56" d="M452.15039,267.44141c0.56012,0.55029,0.87991,1.33011,0.87991,2.12009
					c0,0.7901-0.31979,1.56012-0.87991,2.12012c-0.56,0.56009-1.33008,0.87988-2.12009,0.87988s-1.56009-0.31979-2.12012-0.87988
					c-0.56009-0.56-0.87988-1.33002-0.87988-2.12012c0-0.78998,0.31979-1.56979,0.87988-2.12009
					c0.56003-0.5596,1.3403-0.83981,2.12012-0.83981C450.81009,266.60159,451.59039,266.88181,452.15039,267.44141z"/>
				<path fill="#293A56" d="M452.15039,275.44141c0.56012,0.55029,0.87991,1.33011,0.87991,2.12009
					c0,0.7901-0.31979,1.56012-0.87991,2.12012c-0.56,0.56009-1.33008,0.87988-2.12009,0.87988s-1.56009-0.31979-2.12012-0.87988
					c-0.56009-0.56-0.87988-1.33002-0.87988-2.12012c0-0.78998,0.31979-1.56979,0.87988-2.12009
					c0.56003-0.5596,1.3403-0.83981,2.12012-0.83981C450.81009,274.60159,451.59039,274.88181,452.15039,275.44141z"/>
				<path fill="#293A56" d="M452.15039,283.44141c0.56012,0.55029,0.87991,1.33011,0.87991,2.12009
					c0,0.7901-0.31979,1.56012-0.87991,2.12012c-0.56,0.56009-1.33008,0.87988-2.12009,0.87988s-1.56009-0.31979-2.12012-0.87988
					c-0.56009-0.56-0.87988-1.33002-0.87988-2.12012c0-0.78998,0.31979-1.56979,0.87988-2.12009
					c0.56003-0.5596,1.3403-0.83981,2.12012-0.83981C450.81009,282.60159,451.59039,282.88181,452.15039,283.44141z"/>
				<path fill="#293A56" d="M438.0303,282.56149c1.66019,0,3,1.3399,3,3c0,1.65042-1.33981,3-3,3h-5c-1.66022,0-3-1.34958-3-3
					c0-1.6601,1.33978-3,3-3H438.0303z"/>
			</g>
			<g>
			</g>
		</g>
	</g>
</g>
<g id="Brail">
	<circle fill="#F9D015" cx="570.03027" cy="253.14059" r="45"/>
	<g>
		<path fill="#293A56" d="M628.03027,245.1416c0.79004,0,1.56012-0.3203,2.11963-0.8799
			c0.56012-0.56,0.88037-1.33011,0.88037-2.1201c0-0.79001-0.32025-1.5601-0.88037-2.1196c-1.11963-1.1201-3.12988-1.1201-4.23969,0
			c-0.56012,0.55949-0.87994,1.32959-0.87994,2.1196c0,0.78999,0.31982,1.5601,0.87994,2.1201
			C626.47021,244.8213,627.2403,245.1416,628.03027,245.1416z"/>
		<path fill="#293A56" d="M619.03027,253.1416c0.79004,0,1.56012-0.3203,2.11963-0.8799
			c0.56012-0.56,0.88037-1.33011,0.88037-2.1201c0-0.79001-0.32025-1.5601-0.88037-2.1196c-1.1098-1.1201-3.11963-1.1201-4.23969,0
			c-0.56012,0.55949-0.87994,1.32959-0.87994,2.1196c0,0.78999,0.31982,1.5601,0.87994,2.1201
			C617.47021,252.8213,618.2403,253.1416,619.03027,253.1416z"/>
		<path fill="#293A56" d="M611.03027,253.1416c0.79004,0,1.56012-0.3203,2.11963-0.8799
			c0.56012-0.56,0.88037-1.33011,0.88037-2.1201c0-0.79001-0.32025-1.5601-0.88037-2.1196c-1.1098-1.1201-3.11963-1.1201-4.23969,0
			c-0.56012,0.55949-0.87994,1.32959-0.87994,2.1196c0,0.78999,0.31982,1.5601,0.87994,2.1201
			C609.47021,252.8213,610.2403,253.1416,611.03027,253.1416z"/>
		<path fill="#293A56" d="M591.03027,253.1416c0.79004,0,1.56012-0.3203,2.11963-0.8799
			c0.56012-0.56,0.88037-1.33011,0.88037-2.1201c0-0.79001-0.32025-1.5601-0.88037-2.1196c-1.11963-1.1201-3.11963-1.1201-4.23969,0
			c-0.56012,0.55949-0.87994,1.32959-0.87994,2.1196c0,0.78999,0.31982,1.5601,0.87994,2.1201
			C589.47021,252.8213,590.2403,253.1416,591.03027,253.1416z"/>
		<path fill="#293A56" d="M619.03027,245.1416c0.79004,0,1.56012-0.3203,2.11963-0.8799
			c0.56012-0.56,0.88037-1.33011,0.88037-2.1201c0-0.79001-0.32025-1.5601-0.88037-2.1196c-1.1098-1.1201-3.11963-1.1201-4.23969,0
			c-0.56012,0.55949-0.87994,1.32959-0.87994,2.1196c0,0.78999,0.31982,1.5601,0.87994,2.1201
			C617.47021,244.8213,618.2403,245.1416,619.03027,245.1416z"/>
		<path fill="#293A56" d="M599.03027,245.1416c0.79004,0,1.56012-0.3203,2.11963-0.8799
			c0.56012-0.56,0.88037-1.33011,0.88037-2.1201c0-0.79001-0.32025-1.5601-0.88037-2.1196c-1.11963-1.1201-3.11963-1.1201-4.23969,0
			c-0.56012,0.55949-0.87994,1.32959-0.87994,2.1196c0,0.78999,0.31982,1.5601,0.87994,2.1201
			C597.47021,244.8213,598.2403,245.1416,599.03027,245.1416z"/>
		<path fill="#293A56" d="M637.03027,230.1416h-74c-1.65668,0-3,1.34329-3,3v25c0,1.65671,1.34332,3,3,3h4v46
			c0,1.65671,1.34332,3,3,3h52c1.65674,0,3-1.34329,3-3v-29c0-4.96289-4.0376-9-9-9h-1c-1.60638,0-3.11224,0.42819-4.41888,1.16849
			c-1.60059-2.50198-4.39697-4.16849-7.58112-4.16849h-1c-1.81348,0-3.5,0.54388-4.91455,1.4697
			c-1.64893-2.10739-4.20844-3.4697-7.08545-3.4697h-1c-1.05267,0-2.06006,0.19141-3,0.5249v-3.5249h51c1.65674,0,3-1.34329,3-3v-25
			C640.03027,231.48489,638.68701,230.1416,637.03027,230.1416z M573.03027,256.1416c0-2,1.69824-3,3-3h1c1.30182,0,3,1,3,3v33
			c0,1.65671,1.34332,3,3,3c1.65674,0,3-1.34329,3-3v-16c0-1.6543,1.3457-3,3-3h1c1.6543,0,3,1.3457,3,3v16c0,1.65671,1.34332,3,3,3
			c1.65674,0,3-1.34329,3-3v-14c0-1.6543,1.3457-3,3-3h1c1.6543,0,3,1.3457,3,3v14c0,1.65671,1.34332,3,3,3c1.65674,0,3-1.34329,3-3
			v-11c0-1.6543,1.3457-3,3-3h1c1.6543,0,3,1.3457,3,3v26h-46V256.1416z M634.03027,255.1416h-48.05908
			c-0.49951-4.4937-4.31689-8-8.94092-8h-1c-4.62396,0-8.44135,3.5063-8.94086,8h-1.05914v-19h68V255.1416z"/>
	</g>
</g>
<g id="Wifi_Modem">
	<circle fill="#B6C6AD" cx="760.03027" cy="256.14261" r="45"/>
	<g>
		<g>
			<path fill="#293A56" d="M750.60742,242.7881c2.51416-2.5161,5.85748-3.9014,9.41455-3.9014c0.00153,0,0.00342,0,0.00494,0
				c3.55957,0.00099,6.90717,1.38969,9.4267,3.90919c0.586,0.5864,1.35358,0.87939,2.12158,0.87939
				c0.76758,0,1.53522-0.2925,2.12109-0.87839c1.17139-1.1709,1.17194-3.0708,0.00049-4.2422
				c-3.65186-3.65381-8.50586-5.66701-13.66797-5.668c-0.00238,0-0.00439,0-0.00684,0c-5.16016,0-10.01117,2.0098-13.65869,5.66159
				c-1.17139,1.1714-1.17041,3.0708,0.00201,4.2417C747.53662,243.96091,749.43701,243.96091,750.60742,242.7881z"/>
		</g>
		<g>
			<path fill="#293A56" d="M760.06592,244.1172c-3.54242,0-6.8725,1.38229-9.37592,3.89009
				c-1.17041,1.17241-1.16852,3.07181,0.00439,4.24271c1.1723,1.16991,3.0722,1.168,4.24261-0.0049
				c1.36969-1.3721,3.19098-2.1279,5.12891-2.1279h0.00146c1.94482,0.0015,3.77441,0.7617,5.1524,2.1431
				c0.58594,0.5874,1.35492,0.8813,2.12402,0.8813c0.7666,0,1.5332-0.2925,2.11859-0.8765
				c1.17291-1.1694,1.17529-3.0688,0.00537-4.2417c-2.51117-2.51851-5.84906-3.90471-9.39935-3.9062
				C760.06738,244.1172,760.06689,244.1172,760.06592,244.1172z"/>
		</g>
		<g>
			<path fill="#293A56" d="M798.22662,258.39011c-1.51953-0.66061-3.28662,0.03571-3.94733,1.55521l-9.65039,22.19629h-21.59863v-23
				c0-1.65671-1.34326-3-3-3c-1.65668,0-3,1.34329-3,3v23H735.4317l-9.65039-22.19629
				c-0.66022-1.5195-2.42871-2.21582-3.94733-1.55521c-1.51947,0.66071-2.21527,2.42828-1.55469,3.94778l8.61328,19.81052
				c-2.39447,0.03619-4.57709,0.9971-6.15576,2.72559c-1.60883,1.76172-2.37305,4.07571-2.15131,6.5152l0.914,10.04831
				c0.43658,4.7998,4.71198,8.7041,9.53076,8.7041h58c4.81885,0,9.09424-3.9043,9.53082-8.7041l0.914-10.04831
				c0.22168-2.43948-0.54248-4.75348-2.15131-6.5152c-1.57867-1.72849-3.76129-2.68939-6.15576-2.72559l8.61328-19.81052
				C800.44189,260.81839,799.74609,259.05081,798.22662,258.39011z M793.49951,290.8457l-0.914,10.0488
				c-0.15729,1.72949-1.81842,3.2471-3.55524,3.2471h-58c-1.73676,0-3.39789-1.51761-3.55518-3.2471l-0.914-10.0488
				c-0.06738-0.73972,0.14789-1.42331,0.60638-1.92581c0.4585-0.50189,1.12012-0.77829,1.86279-0.77829h14.5v5
				c0,1.65671,1.34332,3,3,3c1.65674,0,3-1.34329,3-3v-5h3v5c0,1.65671,1.34332,3,3,3c1.65674,0,3-1.34329,3-3v-5h3v5
				c0,1.65671,1.34332,3,3,3c1.65674,0,3-1.34329,3-3v-5h3v5c0,1.65671,1.34332,3,3,3c1.65674,0,3-1.34329,3-3v-5h14.5
				c0.74274,0,1.4043,0.2764,1.86285,0.77829C793.35162,289.42239,793.56689,290.10599,793.49951,290.8457z"/>
		</g>
	</g>
</g>
<g id="Radio">
	<circle fill="#F9D015" cx="91.0303" cy="435.14035" r="45"/>
	<g>
		<g id="XMLID_4_">
			<g>
				<path fill="#F84D43" d="M102.0303,445.1416c3.3101,0,6,2.68991,6,6s-2.6899,6-6,6c-3.3101,0-6-2.68991-6-6
					S98.7202,445.1416,102.0303,445.1416z"/>
				<path fill="#293A56" d="M160.0303,418.1416v49c0,1.66019-1.3398,3-3,3H83.0303c-1.66019,0-3-1.33981-3-3v-49
					c0-1.2998,0.8301-2.3999,1.9902-2.81009c0.0196-0.01022,0.0396-0.02972,0.0596-0.04001l55.12009-18.3696
					c0.5401-2.16022,2.5-3.7803,4.83011-3.7803c2.7598,0,5,2.2402,5,5s-2.2402,5-5,5c-0.8999,0-1.7402-0.2598-2.4702-0.67969
					l-38.0396,12.67969h55.5098C158.69051,415.1416,160.0303,416.48141,160.0303,418.1416z M154.0303,464.1416v-27H102.0303h-16v27
					h16H154.0303z M154.0303,431.1416v-10H103.0303v10H154.0303z M97.0303,431.1416v-10h-11v10H97.0303z"/>
				<path fill="#293A56" d="M150.0303,443.1416v14c0,1.66019-1.3398,3-3,3s-3-1.33981-3-3v-14c0-1.66019,1.3398-3,3-3
					S150.0303,441.48141,150.0303,443.1416z"/>
				<path fill="#293A56" d="M139.0303,443.1416v14c0,1.66019-1.3398,3-3,3s-3-1.33981-3-3v-14c0-1.66019,1.3398-3,3-3
					S139.0303,441.48141,139.0303,443.1416z"/>
				<path fill="#293A56" d="M128.0303,443.1416v14c0,1.66019-1.33981,3-3.00001,3c-1.66019,0-3-1.33981-3-3v-14
					c0-1.66019,1.33981-3,3-3C126.6905,440.1416,128.0303,441.48141,128.0303,443.1416z"/>
				<path fill="#293A56" d="M102.0303,439.1416c6.6201,0,12,5.37991,12,12s-5.3799,12-12,12c-6.62009,0-12-5.37991-12-12
					S95.4102,439.1416,102.0303,439.1416z M108.0303,451.1416c0-3.31009-2.6899-6-6-6c-3.3101,0-6,2.68991-6,6s2.6899,6,6,6
					C105.3404,457.1416,108.0303,454.45169,108.0303,451.1416z"/>
			</g>
			<g>
			</g>
		</g>
	</g>
</g>
<g id="Video_chat">
	<circle fill="#B6C6AD" cx="312.0303" cy="430.14236" r="45"/>
	<g>
		<g id="XMLID_5_">
			<g>
				<path fill="#F9D015" d="M288.94049,433.1514h-17.8204c0.31012-2.7901,1.43021-4.5498,3.67001-5.66998l3.73041,2.22028
					c0.95999,0.56982,2.13968,0.56982,3.0899,0l3.66989-2.22028C287.51031,428.60159,288.6304,430.37161,288.94049,433.1514z"/>
				<path fill="#293A56" d="M320.0303,393.19141v60.9404c0,1.64938-1.33981,3-3,3h-22.95999l4.62018,8.5899
					c0.5,0.92969,0.4697,2.0498-0.0704,2.9599c-0.53998,0.8999-1.51999,1.45999-2.56979,1.45999h-31.97998
					c-1.0498,0-2.03021-0.56009-2.56982-1.45999c-0.53998-0.9101-0.57028-2.03021-0.07028-2.9599l4.62009-8.5899h-22.9599
					c-0.7901,0-1.56009-0.32031-2.12019-0.87979c-0.56-0.56061-0.87981-1.33011-0.87981-2.12021v-60.9404c0-1.66022,1.35011-3,3-3
					h73.93991c0.7998,0,1.56009,0.32028,2.12009,0.87988C319.71051,391.63181,320.0303,392.3916,320.0303,393.19141z
					 M314.0303,451.13181V439.1514h-67.93991v11.98041H314.0303z M314.0303,433.1514v-36.95999h-33.97021h-33.9697v36.95999h19.0097
					c0.45999-5.93948,3.45999-9.92969,8.94-11.84961c0.32031-0.12018,0.65039-0.16998,0.9902-0.16998
					c0.52979,0,1.06979,0.13971,1.54001,0.41998l3.47998,2.08002l3.43021-2.07031c0.76999-0.4599,1.69971-0.55948,2.54001-0.2597
					c5.47998,1.91992,8.47998,5.91013,8.94,11.84961H314.0303z M291.0303,464.1416l-3.76999-7h-14.3999l-3.76031,7H291.0303z
					 M271.12009,433.1514h17.8204c-0.31009-2.77979-1.43018-4.5498-3.66019-5.66998l-3.66989,2.22028
					c-0.95023,0.56982-2.12991,0.56982-3.0899,0l-3.73041-2.22028C272.55029,428.60159,271.43021,430.3613,271.12009,433.1514z"/>
				<path fill="#293A56" d="M280.06009,398.1416c6.07031,0,11,4.92969,11,11s-4.92969,11-11,11
					c-1.5098,0-2.95999-0.31009-4.26999-0.86041c-3.94971-1.6796-6.73001-5.58978-6.73001-10.13959
					C269.06009,403.07129,274.00049,398.1416,280.06009,398.1416z M285.06009,409.1416c0-2.7598-2.23978-5-5-5
					c-2.7598,0-5,2.2402-5,5s2.2402,5,5,5C282.82031,414.1416,285.06009,411.9014,285.06009,409.1416z"/>
				<path fill="#293A56" d="M282.18021,443.03119c0.56009,0.55032,0.87988,1.33011,0.87988,2.12021
					c0,0.79001-0.31979,1.56052-0.87988,2.12012c-0.56012,0.56-1.33011,0.87988-2.12012,0.87988
					c-0.78958,0-1.5596-0.31989-2.1196-0.87988c-0.56009-0.5596-0.8804-1.33011-0.8804-2.12012
					c0-0.7901,0.32031-1.56989,0.8804-2.12021C279.06009,441.91159,281.06009,441.91159,282.18021,443.03119z"/>
			</g>
			<g>
			</g>
		</g>
	</g>
</g>
<g id="Tin_Can_Telephone">
	<circle fill="#F9D015" cx="444.0303" cy="410.14035" r="45"/>
	<g>
		<g id="XMLID_3_">
			<g>
				<path fill="#F84D43" d="M430.11041,445.95169c1.62988,0,4.08978,3.6196,4.08978,9.08981c0,5.47018-2.4599,9.1001-4.08978,9.1001
					c-0.76031,0-1.66022-0.76999-2.41992-2.06009c-1.05029-1.80032-1.66019-4.3696-1.66019-7.04001
					C426.0303,449.57129,428.4903,445.95169,430.11041,445.95169z"/>
				<path fill="#F84D43" d="M455.0303,406.2417c0,5.45999-2.45999,9.08981-4.08011,9.08981
					c-1.62988,0-4.08978-3.62982-4.08978-9.08981c0-5.47018,2.4599-9.1001,4.08978-9.1001
					c0.76031,0,1.66022,0.76999,2.41989,2.06009C454.42041,401.00201,455.0303,403.57129,455.0303,406.2417z"/>
				<path fill="#293A56" d="M465.0303,428.22171c8.26999,0,15,6.9502,15,15.4902c0,8.5401-6.73001,15.48978-15,15.48978h-5.81979
					c-1.18021,6.37982-5.01031,10.93991-9.7002,10.93991h-19.3999c-2.95023,0-5.72021-1.83011-7.5899-5.0303
					c-1.61032-2.72949-2.4902-6.30951-2.4902-10.06979c0-8.45999,4.43021-15.08981,10.08011-15.08981h19.3999
					c2.9599,0,5.72998,1.8295,7.6001,5.02002c1.33978,2.28998,2.1601,5.1601,2.3999,8.22998h5.51999c4.95999,0,9-4.26028,9-9.48978
					c0-5.2402-4.04001-9.4902-9-9.4902h-49c-8.26999,0-15-6.9502-15-15.4903c0-8.54001,6.73001-15.48972,15-15.48972h5.62988
					c0.91013-6.98001,4.91992-12.1001,9.89011-12.1001h19.3999c2.9502,0,5.72021,1.83011,7.5899,5.0303
					c1.61029,2.72949,2.4902,6.30951,2.4902,10.06979c0,4.23001-1.10989,8-2.91989,10.72021
					c-1.82031,2.70999-4.3399,4.3696-7.16022,4.3696h-19.3999c-2.9599,0-5.72998-1.8295-7.6001-5.02002
					c-1.16989-2-1.94971-4.43988-2.29001-7.06979h-5.62988c-4.95999,0-9,4.26031-9,9.48972c0,5.2305,4.04001,9.4903,9,9.4903
					H465.0303z M450.9502,415.33151c1.62012,0,4.08011-3.62982,4.08011-9.08981c0-2.67041-0.60989-5.23969-1.66022-7.04001
					c-0.75967-1.2901-1.65958-2.06009-2.41989-2.06009c-1.62988,0-4.08978,3.62991-4.08978,9.1001
					C446.86041,411.70169,449.32031,415.33151,450.9502,415.33151z M449.51031,464.1416c1.62009,0,4.08008-3.62991,4.08008-9.1001
					c0-2.6597-0.6001-5.23001-1.66019-7.03949c-0.7598-1.2803-1.6597-2.05032-2.41989-2.05032H438.2002
					c1.26031,2.51022,2,5.64011,2,9.08981c0,3.4502-0.73969,6.58011-2,9.1001H449.51031z M442.86041,397.1416h-11.31012
					c-1.62009,0-4.08008,3.62991-4.08008,9.1001c0,2.6597,0.6001,5.23001,1.66019,7.02982c0.7598,1.28998,1.6597,2.06,2.41989,2.06
					h11.31012c-1.26031-2.51022-2-5.6499-2-9.08981C440.86041,402.7915,441.6001,399.6514,442.86041,397.1416z M434.2002,455.0415
					c0-5.47021-2.4599-9.08981-4.08978-9.08981c-1.62012,0-4.08011,3.6196-4.08011,9.08981
					c0,2.67041,0.60989,5.23969,1.66019,7.04001c0.7597,1.2901,1.65961,2.06009,2.41992,2.06009
					C431.7403,464.1416,434.2002,460.51169,434.2002,455.0415z"/>
				<path fill="#293A56" d="M475.3804,394.47171c6.17969,6.47998,6.16989,17.03998-0.01031,23.5303
					c-0.58978,0.6196-1.37979,0.9296-2.16989,0.9296c-0.75,0-1.48969-0.27002-2.06979-0.83002
					c-1.2002-1.13968-1.25-3.0401-0.1001-4.2403c4.0098-4.2099,4.0098-11.0498,0.0098-15.2597
					c-1.13971-1.2002-1.09961-3.09958,0.1001-4.2403C472.34039,393.22171,474.2403,393.27151,475.3804,394.47171z"/>
				<path fill="#293A56" d="M468.07031,398.81149c3.8902,4.15042,3.91998,10.90042,0.08008,15.0498
					c-0.5903,0.64072-1.3999,0.95999-2.2002,0.95999c-0.72998,0-1.4697-0.2598-2.04001-0.79977
					c-1.2197-1.12012-1.2901-3.0195-0.1597-4.24033c1.71973-1.84958,1.69-5-0.06-6.85928
					c-1.1304-1.2002-1.0704-3.10062,0.13962-4.2403C465.0303,397.55179,466.93021,397.6113,468.07031,398.81149z"/>
				<path fill="#293A56" d="M417.37009,458.3613c1.1304,1.2002,1.0704,3.10062-0.13959,4.2403
					c-0.58011,0.54001-1.31009,0.81-2.05029,0.81c-0.7998,0-1.6001-0.31979-2.18991-0.93988
					c-3.8902-4.15042-3.91998-10.90042-0.08011-15.0498c1.12991-1.22021,3.0303-1.2901,4.2402-0.16022
					c1.2197,1.12012,1.2901,3.0195,0.1597,4.24033C415.59039,453.35159,415.62009,456.50201,417.37009,458.3613z"/>
				<path fill="#293A56" d="M410.02051,462.68161c1.13968,1.19,1.09958,3.0899-0.1001,4.2403
					c-0.58002,0.5498-1.33002,0.81979-2.07031,0.81979c-0.79001,0-1.57959-0.31009-2.16989-0.93021
					c-6.17972-6.47998-6.16989-17.03998,0.01028-23.5303c1.13962-1.19968,3.04001-1.25,4.23972-0.09958
					c1.2002,1.13968,1.25,3.0401,0.1001,4.2403C406.0303,451.63181,406.02051,458.47171,410.02051,462.68161z"/>
			</g>
			<g>
			</g>
		</g>
	</g>
</g>
<g id="Satellite_dish">
	<circle fill="#59D999" cx="613.03027" cy="447.14236" r="45"/>
	<g>
		<path fill="#293A56" d="M634.55078,397.11469c-2.67529-3.90668-6.71967-6.5224-11.38818-7.3671
			c-1.6333-0.29688-3.19189,0.7876-3.48633,2.41742c-0.29486,1.6304,0.78766,3.19141,2.41803,3.48639
			c3.07812,0.55661,5.74408,2.28021,7.50629,4.85352c1.78369,2.60498,2.43311,5.76559,1.82764,8.90179
			c-0.3139,1.62601,0.75049,3.19971,2.3775,3.51318c0.19189,0.03711,0.38275,0.05521,0.57178,0.05521
			c1.40869,0,2.66498-0.99759,2.94238-2.43161C638.23102,405.82129,637.24811,401.05219,634.55078,397.11469z"/>
		<path fill="#293A56" d="M618.23981,397.89359c-1.63092-0.29349-3.19092,0.78851-3.48492,2.41891
			c-0.29437,1.63089,0.78864,3.19141,2.41943,3.48529c1.6416,0.29691,3.06299,1.2149,4.00098,2.58502
			c0.95312,1.39258,1.29791,3.08588,0.97168,4.7681c-0.31586,1.6264,0.74664,3.20108,2.37305,3.51709
			c0.19336,0.0376,0.38525,0.05511,0.5752,0.05511c1.40729,0,2.66357-0.99561,2.94141-2.42871
			c0.63525-3.27051-0.0434-6.57321-1.9101-9.30029C624.27441,400.2886,621.47369,398.47699,618.23981,397.89359z"/>
		<path fill="#293A56" d="M606.93359,406.23929c-1.82758,0-3.62598,0.6235-5.06348,1.7558
			c-2.16302,1.70361-3.229,4.28571-3.10352,6.84671l-16.33588,0.81439l-12.25732-15.5791
			c-0.66559-0.84659-1.7334-1.27139-2.79688-1.1127c-1.06403,0.15671-1.9624,0.87201-2.35455,1.8735
			c-4.74847,12.13181-3.69086,25.74802,2.5542,36.93362c-2.57025,1.19379-4.36127,3.7934-4.36127,6.81
			c0,2.18658,0.94531,4.15237,2.44238,5.52588L560.19,466.1748c-0.31158,0.91599-0.16211,1.92578,0.40131,2.71289
			c0.56299,0.78659,1.47119,1.25342,2.43896,1.25342h25c0.00684-0.00101,0.01324-0.00101,0.02002,0c1.6568,0,3-1.34332,3-3
			c0-0.71683-0.2514-1.37451-0.6709-1.89111l-7.56097-11.64651c6.66498,4.05371,14.37738,6.2637,22.45117,6.2637h0.00043
			c1.96149,0,3.94-0.1348,5.88037-0.40039c1.06543-0.14551,1.97119-0.8511,2.37402-1.84769
			c0.40338-0.9975,0.2417-2.13422-0.42334-2.97992l-12.83838-16.31738l4.7002-15.9458
			c0.63873,0.15768,1.30029,0.24509,1.97711,0.24509c1.82812,0,3.6264-0.6235,5.06299-1.75589
			c1.71924-1.353,2.80853-3.29489,3.06732-5.46732c0.2583-2.17279-0.34473-4.31589-1.69769-6.0336
			C611.80957,407.3779,609.4624,406.23929,606.93359,406.23929z M593.98438,421.0874l-4.49561,3.54001l-2.51025-3.19092
			L593.98438,421.0874z M567.21979,464.14111l4.11029-12.08011c1.00732-0.08051,1.95703-0.36029,2.81354-0.80029l8.3623,12.8804
			H567.21979z M576.0025,439.668c-6.98932-8.88281-9.49713-20.50641-7.01129-31.38971l35.86621,45.58691
			C593.51367,453.74319,583.01611,448.58401,576.0025,439.668z M593.1983,429.3428l4.50049-3.54352l-1.9859,6.7388
			L593.1983,429.3428z M609.1123,414.68851c-0.06927,0.58099-0.36029,1.10098-0.82129,1.46289
			c-0.49261,0.38809-1.00629,0.4697-1.35101,0.4697c-0.6778,0-1.3067-0.30469-1.72418-0.83499
			c-0.7475-0.94919-0.58301-2.32959,0.3667-3.07709c0.49268-0.3887,1.00641-0.46973,1.35107-0.46973
			c0.6778,0,1.30621,0.30463,1.72461,0.83591C609.02002,413.53519,609.18121,414.10791,609.1123,414.68851z"/>
	</g>
</g>
<g id="Walkie_talkie">
	<circle fill="#F84D43" cx="735.03027" cy="417.14035" r="45"/>
	<g>
		<path fill="#293A56" d="M798.8775,406.957c-0.5625-0.5625-1.32568-0.87891-2.12109-0.87891h-2.03271v-2.03171
			c0-1.6572-1.34332-3-3-3c-1.6568,0-3,1.3428-3,3v2.03171l-10.7525,0.00101c0.01422-0.11819,0.03571-0.2334,0.03571-0.35501
			c0-1.36179-0.91357-2.4985-2.1568-2.86469v-9.7178c0-1.65671-1.3432-3-3-3c-1.65668,0-3,1.34329-3,3v9.7178
			c-1.2431,0.36618-2.15668,1.5029-2.15668,2.86469c0,0.12161,0.02148,0.23782,0.03607,0.35501h-0.33197c-1.6568,0-3,1.34329-3,3
			v46.97461c0,0.7959,0.31586,1.55859,0.87891,2.12109c0.5625,0.5625,1.32568,0.87891,2.12109,0.87891l29.35889-0.00052
			c1.65668,0,3-1.3432,3-3v-46.9751C799.75641,408.2832,799.44049,407.5195,798.8775,406.957z M793.75641,453.05319
			l-23.35889,0.00052V412.0791l23.35889-0.00101V453.05319z"/>
		<path fill="#293A56" d="M776.625,423.82281h10.9043c1.6568,0,3-1.34332,3-3c0-1.65683-1.3432-3-3-3H776.625
			c-1.65668,0-3,1.34317-3,3C773.625,422.47949,774.96832,423.82281,776.625,423.82281z"/>
		<path fill="#293A56" d="M776.625,433.88919h10.9043c1.6568,0,3-1.34329,3-3c0-1.6568-1.3432-3-3-3H776.625
			c-1.65668,0-3,1.3432-3,3C773.625,432.5459,774.96832,433.88919,776.625,433.88919z"/>
		<path fill="#293A56" d="M782.91559,443.82709h-1.67731c-1.65668,0-3,1.3428-3,3c0,1.65631,1.34332,3,3,3h1.67731
			c1.65674,0,3-1.34369,3-3C785.91559,445.16989,784.57233,443.82709,782.91559,443.82709z"/>
		<path fill="#293A56" d="M752.38922,417.16751h-2.0332v-2.03372c0-1.6568-1.34332-3-3-3c-1.6568,0-3,1.3432-3,3v2.03372
			L733.604,417.168c0.01422-0.11819,0.03571-0.23389,0.03571-0.3555c0-1.36179-0.91364-2.4985-2.1568-2.86429v-9.7182
			c0-1.6568-1.3432-3-3-3c-1.65674,0-3,1.3432-3,3v9.7182c-1.2431,0.36578-2.15674,1.5025-2.15674,2.86429
			c0,0.12161,0.02155,0.2373,0.03613,0.3555h-0.33203c-1.65668,0-3,1.34271-3,3v46.9736c0,0.7959,0.31592,1.55859,0.87891,2.12109
			c0.5625,0.5625,1.32574,0.87891,2.12109,0.87891l29.35895-0.00049c1.65668,0,3-1.34332,3-3v-46.9736
			c0-0.79642-0.31592-1.55911-0.87891-2.12161C753.94781,417.4834,753.18457,417.16751,752.38922,417.16751z M749.38922,464.14111
			l-23.35895,0.00049V423.168l23.35895-0.00049V464.14111z"/>
		<path fill="#293A56" d="M732.25781,434.9111l10.90479-0.00092c1.65729,0,3-1.34277,3-2.99957c0-1.65671-1.3432-3.00043-3-3.00043
			l-10.90479,0.00092c-1.65723,0-3,1.34329-3,3C729.25781,433.56839,730.60107,434.9111,732.25781,434.9111z"/>
		<path fill="#293A56" d="M732.25781,444.97659l10.90479-0.00049c1.65729,0,3-1.34329,3-3.00052c0-1.65628-1.3432-2.99948-3-2.99948
			l-10.90479,0.00049c-1.65723,0-3,1.34372-3,3C729.25781,443.63379,730.60107,444.97659,732.25781,444.97659z"/>
		<path fill="#293A56" d="M738.5484,454.91409c0,0-0.00049,0-0.00098,0l-1.67731,0.0004
			c-1.65674,0.00101-2.99951,1.3443-2.99902,3.00101c0.00049,1.65732,1.34332,2.99899,3,2.99899h0.00098l1.67725-0.0004
			c1.6568-0.00049,2.99957-1.34378,2.99908-3.00101C741.54791,456.25681,740.20508,454.91409,738.5484,454.91409z"/>
	</g>
</g>
</svg>
